<?xml version="1.0" encoding="UTF-8" standalone="no"?>
<!-- Created with Inkscape (http://www.inkscape.org/) -->

<svg
   xmlns:dc="http://purl.org/dc/elements/1.1/"
   xmlns:cc="http://creativecommons.org/ns#"
   xmlns:rdf="http://www.w3.org/1999/02/22-rdf-syntax-ns#"
   xmlns:svg="http://www.w3.org/2000/svg"
   xmlns="http://www.w3.org/2000/svg"
   xmlns:sodipodi="http://sodipodi.sourceforge.net/DTD/sodipodi-0.dtd"
   xmlns:inkscape="http://www.inkscape.org/namespaces/inkscape"
   width="156.20312"
   height="38.925377"
   id="svg3705"
   version="1.1"
   inkscape:version="0.48.5 r10040"
   sodipodi:docname="New document 5">
  <defs
     id="defs3707">
    <clipPath
       clipPathUnits="userSpaceOnUse"
       id="clipPath234">
      <path
         inkscape:connector-curvature="0"
         d="M 0,0 648,0 648,792 0,792 0,0 z"
         id="path236" />
    </clipPath>
  </defs>
  <sodipodi:namedview
     id="base"
     pagecolor="#ffffff"
     bordercolor="#666666"
     borderopacity="1.0"
     inkscape:pageopacity="0.0"
     inkscape:pageshadow="2"
     inkscape:zoom="1.979899"
     inkscape:cx="77.413189"
     inkscape:cy="41.869299"
     inkscape:document-units="px"
     inkscape:current-layer="g232"
     showgrid="false"
     fit-margin-top="1"
     fit-margin-left="1"
     fit-margin-bottom="1"
     fit-margin-right="1"
     inkscape:window-width="463"
     inkscape:window-height="405"
     inkscape:window-x="156"
     inkscape:window-y="156"
     inkscape:window-maximized="0" />
  <metadata
     id="metadata3710">
    <rdf:RDF>
      <cc:Work
         rdf:about="">
        <dc:format>image/svg+xml</dc:format>
        <dc:type
           rdf:resource="http://purl.org/dc/dcmitype/StillImage" />
        <dc:title></dc:title>
      </cc:Work>
    </rdf:RDF>
  </metadata>
  <g
     inkscape:label="Layer 1"
     inkscape:groupmode="layer"
     id="layer1"
     transform="translate(-296.89844,-512.89945)">
    <g
       transform="matrix(1.25,0,0,-1.25,230.39844,1483.5492)"
       id="g230">
      <g
         id="g232"
         clip-path="url(#clipPath234)">
        <g
           id="g238"
           transform="translate(54,760.9507)">
          <path
             inkscape:connector-curvature="0"
             d="M 0,0 C 0,-1.81 0.328,-3.544 0.924,-5.147 L 3.3,1.385 C 3.63,2.295 3.161,3.301 2.252,3.634 1.555,3.885 0.802,3.668 0.339,3.143 0.119,2.13 0,1.079 0,0"
             style="fill:#88c540;fill-opacity:1;fill-rule:nonzero;stroke:none"
             id="path240" />
        </g>
        <g
           id="g242"
           transform="translate(56.5459,765.3877)">
          <path
             inkscape:connector-curvature="0"
             d="M 0,0 C 0.901,-0.328 1.915,0.139 2.247,1.048 L 4.922,8.399 C 2.287,6.897 0.16,4.608 -1.14,1.852 -1.232,1.063 -0.772,0.282 0,0"
             style="fill:#1c7b7e;fill-opacity:1;fill-rule:nonzero;stroke:none"
             id="path244" />
        </g>
        <g
           id="g246"
           transform="translate(77.4125,754.17)">
          <path
             inkscape:connector-curvature="0"
             d="m 0,0 c -0.332,-0.91 -1.338,-1.379 -2.247,-1.048 -0.911,0.331 -1.38,1.336 -1.049,2.248 0.33,0.909 1.337,1.379 2.247,1.047 C -0.138,1.916 0.329,0.909 0,0"
             style="fill:#35b5b9;fill-opacity:1;fill-rule:nonzero;stroke:none"
             id="path248" />
        </g>
        <g
           id="g250"
           transform="translate(75.2251,748.1632)">
          <path
             inkscape:connector-curvature="0"
             d="m 0,0 c -0.332,-0.913 -1.345,-1.379 -2.247,-1.049 -0.902,0.327 -1.378,1.336 -1.047,2.246 L -2.6,3.105 c 0.332,0.911 1.337,1.378 2.246,1.049 C 0.556,3.822 1.025,2.816 0.693,1.905 L 0,0 z"
             style="fill:#88c540;fill-opacity:1;fill-rule:nonzero;stroke:none"
             id="path252" />
        </g>
        <g
           id="g254"
           transform="translate(78.9038,758.2726)">
          <path
             inkscape:connector-curvature="0"
             d="m 0,0 c -0.331,-0.91 -1.344,-1.377 -2.245,-1.05 -0.903,0.329 -1.381,1.338 -1.05,2.248 l 3.029,8.32 c 0.331,0.909 1.338,1.379 2.248,1.048 C 2.891,10.235 3.36,9.229 3.03,8.318 L 0,0 z"
             style="fill:#88c540;fill-opacity:1;fill-rule:nonzero;stroke:none"
             id="path256" />
        </g>
        <g
           id="g258"
           transform="translate(83.5407,760.9491)">
          <path
             inkscape:connector-curvature="0"
             d="M 0,0 C 0,1.801 -0.323,3.526 -0.913,5.122 L -2.947,-0.47 c -0.33,-0.909 0.146,-1.916 1.048,-2.246 0.592,-0.215 1.233,-0.087 1.696,0.284 C -0.071,-1.641 0,-0.828 0,0"
             style="fill:#1c7b7e;fill-opacity:1;fill-rule:nonzero;stroke:none"
             id="path260" />
        </g>
        <g
           id="g262"
           transform="translate(82.459,755.399)">
          <path
             inkscape:connector-curvature="0"
             d="M 0,0 C 0.189,0.847 -0.275,1.724 -1.11,2.029 -2.02,2.36 -3.027,1.89 -3.358,0.981 L -6.364,-7.273 C -3.507,-5.638 -1.25,-3.079 0,0"
             style="fill:#35b5b9;fill-opacity:1;fill-rule:nonzero;stroke:none"
             id="path264" />
        </g>
        <g
           id="g266"
           transform="translate(72.2615,765.388)">
          <path
             inkscape:connector-curvature="0"
             d="M 0,0 C -0.333,-0.91 -1.346,-1.376 -2.248,-1.049 -3.151,-0.72 -3.627,0.29 -3.296,1.199 l 2.632,7.232 c 0.331,0.91 1.338,1.38 2.249,1.048 C 2.493,9.149 2.963,8.14 2.63,7.232 L 0,0 z"
             style="fill:#88c540;fill-opacity:1;fill-rule:nonzero;stroke:none"
             id="path268" />
        </g>
        <g
           id="g270"
           transform="translate(67.9197,758.5845)">
          <path
             inkscape:connector-curvature="0"
             d="m 0,0 c -0.91,0.332 -1.917,-0.137 -2.248,-1.047 l -3.557,-9.772 c 1.035,-0.523 2.139,-0.928 3.296,-1.197 l 3.557,9.769 C 1.379,-1.336 0.908,-0.329 0,0"
             style="fill:#88c540;fill-opacity:1;fill-rule:nonzero;stroke:none"
             id="path272" />
        </g>
        <g
           id="g274"
           transform="translate(62.9526,770.3029)">
          <path
             inkscape:connector-curvature="0"
             d="M 0,0 C 0.901,-0.328 1.914,0.138 2.246,1.048 L 3.784,5.275 C 2.312,5.072 0.908,4.652 -0.392,4.049 L -1.048,2.247 C -1.378,1.336 -0.901,0.329 0,0"
             style="fill:#88c540;fill-opacity:1;fill-rule:nonzero;stroke:none"
             id="path276" />
        </g>
        <g
           id="g278"
           transform="translate(63.7082,767.2509)">
          <path
             inkscape:connector-curvature="0"
             d="m 0,0 c -0.333,-0.911 -1.338,-1.38 -2.247,-1.048 -0.91,0.331 -1.381,1.337 -1.051,2.247 0.332,0.911 1.339,1.379 2.248,1.048 C -0.139,1.915 0.33,0.91 0,0"
             style="fill:#35b5b9;fill-opacity:1;fill-rule:nonzero;stroke:none"
             id="path280" />
        </g>
        <g
           id="g282"
           transform="translate(59.0329,759.5362)">
          <path
             inkscape:connector-curvature="0"
             d="m 0,0 c -0.901,0.326 -1.377,1.333 -1.049,2.243 l -2.379,-6.539 c -0.33,-0.91 0.146,-1.917 1.049,-2.247 0.899,-0.327 1.913,0.14 2.245,1.048 L 2.247,1.046 C 1.915,0.137 0.902,-0.328 0,0"
             style="fill:#35b5b9;fill-opacity:1;fill-rule:nonzero;stroke:none"
             id="path284" />
        </g>
        <g
           id="g286"
           transform="translate(61.2799,760.5829)">
          <path
             inkscape:connector-curvature="0"
             d="m 0,0 c -0.332,-0.909 -1.345,-1.375 -2.246,-1.047 -0.903,0.327 -1.378,1.336 -1.049,2.246 l 0.934,2.566 c 0.332,0.911 1.339,1.379 2.246,1.048 C 0.797,4.481 1.264,3.476 0.934,2.565 L 0,0 z"
             style="fill:#88c540;fill-opacity:1;fill-rule:nonzero;stroke:none"
             id="path288" />
        </g>
        <g
           id="g290"
           transform="translate(78.531,769.9301)">
          <path
             inkscape:connector-curvature="0"
             d="M 0,0 0.572,1.57 C -0.303,2.427 -1.285,3.176 -2.35,3.794 L -3.294,1.201 c -0.33,-0.91 0.148,-1.918 1.048,-2.247 C -1.345,-1.374 -0.33,-0.908 0,0"
             style="fill:#1c7b7e;fill-opacity:1;fill-rule:nonzero;stroke:none"
             id="path292" />
        </g>
        <g
           id="g294"
           transform="translate(68.7712,746.1795)">
          <path
             inkscape:connector-curvature="0"
             d="M 0,0 C 0.382,0 0.759,0.019 1.133,0.047 L 1.505,1.068 C 1.835,1.979 1.367,2.985 0.457,3.316 -0.454,3.647 -1.46,3.179 -1.791,2.268 L -2.536,0.222 C -1.712,0.079 -0.865,0 0,0"
             style="fill:#35b5b9;fill-opacity:1;fill-rule:nonzero;stroke:none"
             id="path296" />
        </g>
        <g
           id="g298"
           transform="translate(71.7759,751.3669)">
          <path
             inkscape:connector-curvature="0"
             d="m 0,0 c -0.33,-0.91 -1.346,-1.375 -2.247,-1.045 -0.902,0.325 -1.381,1.334 -1.047,2.246 l 5.261,14.461 c 0.333,0.91 1.339,1.379 2.248,1.048 0.91,-0.331 1.378,-1.338 1.049,-2.248 L 0,0 z"
             style="fill:#1c3a62;fill-opacity:1;fill-rule:nonzero;stroke:none"
             id="path300" />
        </g>
        <g
           id="g302"
           transform="translate(67.6662,775.6748)">
          <path
             inkscape:connector-curvature="0"
             d="m 0,0 c -0.232,-0.866 0.24,-1.786 1.094,-2.097 0.9,-0.327 1.914,0.137 2.247,1.047 l 0.316,0.871 C 2.828,-0.034 1.976,0.045 1.105,0.045 0.733,0.045 0.365,0.027 0,0"
             style="fill:#35b5b9;fill-opacity:1;fill-rule:nonzero;stroke:none"
             id="path304" />
        </g>
        <g
           id="g306"
           transform="translate(61.3775,748.1654)">
          <path
             inkscape:connector-curvature="0"
             d="M 0,0 1.812,4.98 C 1.474,4.078 0.475,3.616 -0.43,3.945 -1.341,4.276 -1.81,5.283 -1.478,6.193 l 0,0.001 L -2.925,2.22 C -2.049,1.365 -1.067,0.618 0,0"
             style="fill:#1c7b7e;fill-opacity:1;fill-rule:nonzero;stroke:none"
             id="path308" />
        </g>
        <g
           id="g310"
           transform="translate(63.194,753.1591)">
          <path
             inkscape:connector-curvature="0"
             d="m 0,0 c -0.334,-0.913 -1.338,-1.38 -2.248,-1.049 -0.911,0.332 -1.38,1.339 -1.047,2.248 0.33,0.911 1.336,1.379 2.245,1.049 C -0.139,1.916 0.33,0.91 0,0"
             style="fill:#88c540;fill-opacity:1;fill-rule:nonzero;stroke:none"
             id="path312" />
        </g>
        <g
           id="g314"
           transform="translate(69.5868,763.5212)">
          <path
             inkscape:connector-curvature="0"
             d="M 0,0 C -0.351,0.128 -0.714,0.158 -1.058,0.104 -1.521,0.047 -2.519,0.065 -2.054,1.55 l -0.002,0 2,5.497 C 0.274,7.956 -0.194,8.964 -1.104,9.294 -2.014,9.626 -3.019,9.155 -3.352,8.246 L -8.206,-5.093 c -0.332,-0.909 0.146,-1.92 1.047,-2.247 0.902,-0.329 1.915,0.137 2.248,1.047 l 0.879,2.415 0.002,0 c 0.6,1.441 1.381,0.802 1.696,0.463 0.229,-0.261 0.525,-0.47 0.872,-0.597 1.109,-0.404 2.336,0.167 2.738,1.276 C 1.68,-1.629 1.108,-0.402 0,0"
             style="fill:#1c3a62;fill-opacity:1;fill-rule:nonzero;stroke:none"
             id="path316" />
        </g>
        <g
           id="g318"
           transform="translate(92.3811,769.4848)">
          <path
             inkscape:connector-curvature="0"
             d="m 0,0 c 0,0.126 0.101,0.239 0.24,0.239 l 5.215,0 c 0.138,0 0.24,-0.113 0.24,-0.239 l 0,-1.373 c 0,-0.126 -0.102,-0.239 -0.24,-0.239 l -3.49,0 0,-1.814 2.872,0 c 0.127,0 0.24,-0.114 0.24,-0.24 l 0,-1.373 c 0,-0.126 -0.113,-0.239 -0.24,-0.239 l -2.872,0 0,-3.061 c 0,-0.127 -0.113,-0.24 -0.239,-0.24 l -1.486,0 C 0.101,-8.579 0,-8.466 0,-8.339 L 0,0 z"
             style="fill:#1c3a62;fill-opacity:1;fill-rule:nonzero;stroke:none"
             id="path320" />
        </g>
        <g
           id="g322"
           transform="translate(100.7496,769.4848)">
          <path
             inkscape:connector-curvature="0"
             d="m 0,0 c 0,0.126 0.101,0.239 0.239,0.239 l 3.767,0 c 1.512,0 2.746,-1.221 2.746,-2.721 0,-1.159 -0.769,-2.091 -1.864,-2.532 l 1.725,-3.199 c 0.089,-0.164 0,-0.366 -0.214,-0.366 l -1.675,0 c -0.101,0 -0.176,0.063 -0.202,0.113 l -1.675,3.339 -0.869,0 0,-3.212 c 0,-0.127 -0.114,-0.24 -0.239,-0.24 l -1.5,0 C 0.101,-8.579 0,-8.466 0,-8.339 L 0,0 z m 3.842,-3.527 c 0.517,0 0.958,0.479 0.958,1.008 0,0.529 -0.441,0.957 -0.958,0.957 l -1.864,0 0,-1.965 1.864,0 z"
             style="fill:#1c3a62;fill-opacity:1;fill-rule:nonzero;stroke:none"
             id="path324" />
        </g>
        <g
           id="g326"
           transform="translate(110.1073,769.4848)">
          <path
             inkscape:connector-curvature="0"
             d="m 0,0 c 0,0.126 0.101,0.239 0.239,0.239 l 5.215,0 c 0.139,0 0.24,-0.113 0.24,-0.239 l 0,-1.373 c 0,-0.126 -0.101,-0.239 -0.24,-0.239 l -3.489,0 0,-1.563 2.872,0 c 0.127,0 0.239,-0.113 0.239,-0.239 l 0,-1.373 c 0,-0.138 -0.112,-0.239 -0.239,-0.239 l -2.872,0 0,-1.701 3.489,0 c 0.139,0 0.24,-0.113 0.24,-0.239 l 0,-1.373 c 0,-0.127 -0.101,-0.24 -0.24,-0.24 l -5.215,0 C 0.101,-8.579 0,-8.466 0,-8.339 L 0,0 z"
             style="fill:#1c3a62;fill-opacity:1;fill-rule:nonzero;stroke:none"
             id="path328" />
        </g>
        <g
           id="g330"
           transform="translate(118.8069,769.4848)">
          <path
             inkscape:connector-curvature="0"
             d="m 0,0 c 0,0.126 0.101,0.239 0.227,0.239 l 3.073,0 c 2.432,0 4.422,-1.977 4.422,-4.396 0,-2.444 -1.99,-4.422 -4.422,-4.422 l -3.073,0 C 0.101,-8.579 0,-8.466 0,-8.339 L 0,0 z m 3.175,-6.714 c 1.423,0 2.456,1.121 2.456,2.557 0,1.423 -1.033,2.545 -2.456,2.545 l -1.21,0 0,-5.102 1.21,0 z"
             style="fill:#1c3a62;fill-opacity:1;fill-rule:nonzero;stroke:none"
             id="path332" />
        </g>
        <g
           id="g334"
           transform="translate(132.6739,769.4848)">
          <path
             inkscape:connector-curvature="0"
             d="m 0,0 c 0,0.126 0.113,0.239 0.24,0.239 l 1.499,0 C 1.877,0.239 1.978,0.126 1.978,0 l 0,-3.175 3.603,0 0,3.175 c 0,0.126 0.101,0.239 0.239,0.239 l 1.499,0 c 0.126,0 0.24,-0.113 0.24,-0.239 l 0,-8.339 c 0,-0.127 -0.114,-0.24 -0.24,-0.24 l -1.499,0 c -0.138,0 -0.239,0.113 -0.239,0.24 l 0,3.313 -3.603,0 0,-3.313 c 0,-0.127 -0.101,-0.24 -0.239,-0.24 l -1.499,0 C 0.113,-8.579 0,-8.466 0,-8.339 L 0,0 z"
             style="fill:#1c3a62;fill-opacity:1;fill-rule:nonzero;stroke:none"
             id="path336" />
        </g>
        <g
           id="g338"
           transform="translate(143.0648,769.4848)">
          <path
             inkscape:connector-curvature="0"
             d="m 0,0 c 0,0.126 0.113,0.239 0.24,0.239 l 1.549,0 C 1.928,0.239 2.028,0.126 2.028,0 l 0,-5.102 c 0,-0.882 0.656,-1.587 1.55,-1.587 0.907,0 1.575,0.705 1.575,1.587 l 0,5.102 c 0,0.126 0.1,0.239 0.239,0.239 l 1.549,0 c 0.126,0 0.24,-0.113 0.24,-0.239 l 0,-5.203 C 7.181,-7.118 5.568,-8.705 3.578,-8.705 1.6,-8.705 0,-7.118 0,-5.203 L 0,0 z"
             style="fill:#1c3a62;fill-opacity:1;fill-rule:nonzero;stroke:none"
             id="path340" />
        </g>
        <g
           id="g342"
           transform="translate(154.4763,767.8723)">
          <path
             inkscape:connector-curvature="0"
             d="M 0,0 -1.801,0 C -1.94,0 -2.04,0.113 -2.04,0.239 l 0,1.373 c 0,0.126 0.1,0.24 0.239,0.24 l 5.593,0 c 0.138,0 0.239,-0.114 0.239,-0.24 l 0,-1.373 C 4.031,0.113 3.93,0 3.792,0 l -1.802,0 0,-6.727 c 0,-0.126 -0.113,-0.239 -0.239,-0.239 l -1.511,0 C 0.113,-6.966 0,-6.853 0,-6.727 L 0,0 z"
             style="fill:#1c3a62;fill-opacity:1;fill-rule:nonzero;stroke:none"
             id="path344" />
        </g>
        <g
           id="g346"
           transform="translate(164.4899,769.8503)">
          <path
             inkscape:connector-curvature="0"
             d="m 0,0 c 1.26,0 2.192,-0.391 3.049,-1.172 0.113,-0.1 0.113,-0.251 0.013,-0.352 L 2.079,-2.545 c -0.089,-0.088 -0.227,-0.088 -0.315,0 -0.466,0.416 -1.084,0.643 -1.701,0.643 -1.423,0 -2.469,-1.185 -2.469,-2.595 0,-1.399 1.058,-2.558 2.482,-2.558 0.592,0 1.234,0.214 1.688,0.605 0.088,0.076 0.251,0.076 0.327,-0.013 L 3.074,-7.508 C 3.162,-7.597 3.149,-7.76 3.062,-7.848 2.204,-8.68 1.121,-9.07 0,-9.07 c -2.52,0 -4.548,2.003 -4.548,4.522 C -4.548,-2.028 -2.52,0 0,0"
             style="fill:#1c3a62;fill-opacity:1;fill-rule:nonzero;stroke:none"
             id="path348" />
        </g>
        <g
           id="g350"
           transform="translate(169.8045,769.4848)">
          <path
             inkscape:connector-curvature="0"
             d="m 0,0 c 0,0.126 0.113,0.239 0.239,0.239 l 1.5,0 C 1.877,0.239 1.978,0.126 1.978,0 l 0,-3.175 3.602,0 0,3.175 c 0,0.126 0.101,0.239 0.24,0.239 l 1.499,0 C 7.445,0.239 7.558,0.126 7.558,0 l 0,-8.339 c 0,-0.127 -0.113,-0.24 -0.239,-0.24 l -1.499,0 c -0.139,0 -0.24,0.113 -0.24,0.24 l 0,3.313 -3.602,0 0,-3.313 c 0,-0.127 -0.101,-0.24 -0.239,-0.24 l -1.5,0 C 0.113,-8.579 0,-8.466 0,-8.339 L 0,0 z"
             style="fill:#1c3a62;fill-opacity:1;fill-rule:nonzero;stroke:none"
             id="path352" />
        </g>
        <g
           id="g354"
           transform="translate(94.2044,756.6118)">
          <path
             inkscape:connector-curvature="0"
             d="M 0,0 C 0.636,0 1.095,-0.202 1.524,-0.586 1.58,-0.636 1.58,-0.712 1.53,-0.762 L 1.146,-1.159 c -0.044,-0.05 -0.107,-0.05 -0.158,0 -0.263,0.233 -0.616,0.372 -0.969,0.372 -0.806,0 -1.404,-0.674 -1.404,-1.467 0,-0.787 0.605,-1.455 1.411,-1.455 0.377,0 0.699,0.145 0.962,0.359 0.051,0.044 0.12,0.038 0.158,0 l 0.39,-0.403 C 1.587,-3.797 1.574,-3.878 1.53,-3.923 1.102,-4.338 0.561,-4.534 0,-4.534 c -1.259,0 -2.273,1.002 -2.273,2.261 C -2.273,-1.014 -1.259,0 0,0"
             style="fill:#1c3a62;fill-opacity:1;fill-rule:nonzero;stroke:none"
             id="path356" />
        </g>
        <g
           id="g358"
           transform="translate(97.0724,756.4292)">
          <path
             inkscape:connector-curvature="0"
             d="m 0,0 c 0,0.063 0.056,0.119 0.12,0.119 l 0.597,0 c 0.07,0 0.12,-0.056 0.12,-0.119 l 0,-2.575 c 0,-0.535 0.365,-0.957 0.913,-0.957 0.548,0 0.919,0.422 0.919,0.95 l 0,2.582 c 0,0.063 0.051,0.119 0.12,0.119 l 0.598,0 C 3.45,0.119 3.507,0.063 3.507,0 l 0,-2.62 C 3.507,-3.577 2.745,-4.351 1.75,-4.351 0.762,-4.351 0,-3.577 0,-2.62 L 0,0 z"
             style="fill:#1c3a62;fill-opacity:1;fill-rule:nonzero;stroke:none"
             id="path360" />
        </g>
        <g
           id="g362"
           transform="translate(102.0645,756.4292)">
          <path
             inkscape:connector-curvature="0"
             d="m 0,0 c 0,0.063 0.05,0.119 0.119,0.119 l 1.801,0 c 0.756,0 1.373,-0.604 1.373,-1.353 0,-0.58 -0.385,-1.052 -0.932,-1.272 l 0.863,-1.599 c 0.043,-0.082 0,-0.183 -0.107,-0.183 l -0.661,0 c -0.058,0 -0.089,0.032 -0.102,0.057 l -0.837,1.668 -0.699,0 0,-1.606 c 0,-0.062 -0.056,-0.119 -0.119,-0.119 l -0.58,0 C 0.05,-4.288 0,-4.231 0,-4.169 L 0,0 z m 1.851,-1.889 c 0.334,0 0.623,0.289 0.623,0.642 0,0.334 -0.289,0.611 -0.623,0.611 l -1.027,0 0,-1.253 1.027,0 z"
             style="fill:#1c3a62;fill-opacity:1;fill-rule:nonzero;stroke:none"
             id="path364" />
        </g>
        <g
           id="g366"
           transform="translate(106.8295,756.4292)">
          <path
             inkscape:connector-curvature="0"
             d="m 0,0 c 0,0.063 0.05,0.119 0.119,0.119 l 2.563,0 C 2.751,0.119 2.801,0.063 2.801,0 l 0,-0.516 c 0,-0.063 -0.05,-0.12 -0.119,-0.12 l -1.864,0 0,-1.033 1.556,0 c 0.062,0 0.119,-0.056 0.119,-0.119 l 0,-0.523 c 0,-0.069 -0.057,-0.12 -0.119,-0.12 l -1.556,0 0,-1.101 1.864,0 c 0.069,0 0.119,-0.057 0.119,-0.12 l 0,-0.517 c 0,-0.062 -0.05,-0.119 -0.119,-0.119 l -2.563,0 C 0.05,-4.288 0,-4.231 0,-4.169 L 0,0 z"
             style="fill:#1c3a62;fill-opacity:1;fill-rule:nonzero;stroke:none"
             id="path368" />
        </g>
        <g
           id="g370"
           transform="translate(110.9711,752.7584)">
          <path
             inkscape:connector-curvature="0"
             d="m 0,0 0.227,0.39 c 0.05,0.089 0.157,0.089 0.214,0.044 0.031,-0.018 0.541,-0.39 0.95,-0.39 0.328,0 0.574,0.214 0.574,0.485 0,0.321 -0.271,0.541 -0.8,0.755 -0.592,0.239 -1.184,0.617 -1.184,1.361 0,0.56 0.416,1.208 1.417,1.208 0.642,0 1.133,-0.327 1.259,-0.422 C 2.72,3.393 2.739,3.286 2.695,3.224 L 2.456,2.865 C 2.405,2.789 2.311,2.739 2.235,2.789 2.185,2.821 1.707,3.135 1.36,3.135 1.001,3.135 0.806,2.896 0.806,2.695 0.806,2.399 1.039,2.197 1.549,1.99 2.16,1.744 2.865,1.379 2.865,0.566 2.865,-0.082 2.304,-0.68 1.416,-0.68 0.623,-0.68 0.158,-0.309 0.031,-0.189 -0.025,-0.132 -0.056,-0.101 0,0"
             style="fill:#1c3a62;fill-opacity:1;fill-rule:nonzero;stroke:none"
             id="path372" />
        </g>
        <g
           id="g374"
           transform="translate(117.2877,752.7584)">
          <path
             inkscape:connector-curvature="0"
             d="m 0,0 0.226,0.39 c 0.051,0.089 0.158,0.089 0.215,0.044 0.031,-0.018 0.541,-0.39 0.95,-0.39 0.328,0 0.573,0.214 0.573,0.485 0,0.321 -0.271,0.541 -0.799,0.755 -0.592,0.239 -1.184,0.617 -1.184,1.361 0,0.56 0.416,1.208 1.416,1.208 0.643,0 1.134,-0.327 1.26,-0.422 C 2.719,3.393 2.739,3.286 2.694,3.224 L 2.456,2.865 C 2.405,2.789 2.311,2.739 2.235,2.789 2.185,2.821 1.706,3.135 1.36,3.135 1.001,3.135 0.806,2.896 0.806,2.695 0.806,2.399 1.038,2.197 1.548,1.99 2.16,1.744 2.864,1.379 2.864,0.566 2.864,-0.082 2.304,-0.68 1.416,-0.68 0.623,-0.68 0.157,-0.309 0.031,-0.189 -0.026,-0.132 -0.057,-0.101 0,0"
             style="fill:#1c3a62;fill-opacity:1;fill-rule:nonzero;stroke:none"
             id="path376" />
        </g>
        <g
           id="g378"
           transform="translate(122.25,755.793)">
          <path
             inkscape:connector-curvature="0"
             d="m 0,0 -0.964,0 c -0.069,0 -0.119,0.057 -0.119,0.12 l 0,0.516 c 0,0.063 0.05,0.12 0.119,0.12 l 2.752,0 c 0.069,0 0.12,-0.057 0.12,-0.12 l 0,-0.516 C 1.908,0.057 1.857,0 1.788,0 l -0.964,0 0,-3.532 c 0,-0.063 -0.056,-0.12 -0.119,-0.12 l -0.585,0 C 0.056,-3.652 0,-3.595 0,-3.532 L 0,0 z"
             style="fill:#1c3a62;fill-opacity:1;fill-rule:nonzero;stroke:none"
             id="path380" />
        </g>
        <g
           id="g382"
           transform="translate(124.5684,752.3048)">
          <path
             inkscape:connector-curvature="0"
             d="m 0,0 1.958,4.237 c 0.019,0.038 0.05,0.07 0.107,0.07 l 0.063,0 c 0.063,0 0.088,-0.032 0.107,-0.07 L 4.174,0 C 4.212,-0.081 4.161,-0.163 4.067,-0.163 l -0.547,0 c -0.095,0 -0.139,0.037 -0.183,0.125 l -0.309,0.681 -1.883,0 -0.308,-0.681 C 0.812,-0.101 0.755,-0.163 0.655,-0.163 l -0.548,0 C 0.012,-0.163 -0.038,-0.081 0,0 m 2.719,1.341 -0.629,1.386 -0.019,0 -0.617,-1.386 1.265,0 z"
             style="fill:#1c3a62;fill-opacity:1;fill-rule:nonzero;stroke:none"
             id="path384" />
        </g>
        <g
           id="g386"
           transform="translate(129.8555,756.4292)">
          <path
             inkscape:connector-curvature="0"
             d="m 0,0 c 0,0.063 0.051,0.119 0.12,0.119 l 1.801,0 c 0.755,0 1.372,-0.604 1.372,-1.353 0,-0.58 -0.384,-1.052 -0.932,-1.272 l 0.863,-1.599 c 0.044,-0.082 0,-0.183 -0.107,-0.183 l -0.661,0 c -0.057,0 -0.089,0.032 -0.101,0.057 l -0.837,1.668 -0.699,0 0,-1.606 c 0,-0.062 -0.057,-0.119 -0.12,-0.119 l -0.579,0 C 0.051,-4.288 0,-4.231 0,-4.169 L 0,0 z m 1.851,-1.889 c 0.334,0 0.624,0.289 0.624,0.642 0,0.334 -0.29,0.611 -0.624,0.611 l -1.026,0 0,-1.253 1.026,0 z"
             style="fill:#1c3a62;fill-opacity:1;fill-rule:nonzero;stroke:none"
             id="path388" />
        </g>
        <g
           id="g390"
           transform="translate(135.2971,755.793)">
          <path
             inkscape:connector-curvature="0"
             d="m 0,0 -0.964,0 c -0.069,0 -0.12,0.057 -0.12,0.12 l 0,0.516 c 0,0.063 0.051,0.12 0.12,0.12 l 2.752,0 c 0.07,0 0.12,-0.057 0.12,-0.12 l 0,-0.516 C 1.908,0.057 1.858,0 1.788,0 l -0.963,0 0,-3.532 c 0,-0.063 -0.057,-0.12 -0.12,-0.12 l -0.585,0 C 0.057,-3.652 0,-3.595 0,-3.532 L 0,0 z"
             style="fill:#1c3a62;fill-opacity:1;fill-rule:nonzero;stroke:none"
             id="path392" />
        </g>
        <g
           id="g394"
           transform="translate(140.773,756.4292)">
          <path
             inkscape:connector-curvature="0"
             d="m 0,0 c 0,0.063 0.057,0.119 0.12,0.119 l 0.585,0 c 0.07,0 0.12,-0.056 0.12,-0.119 l 0,-1.669 2.053,0 0,1.669 c 0,0.063 0.05,0.119 0.119,0.119 l 0.579,0 c 0.063,0 0.12,-0.056 0.12,-0.119 l 0,-4.169 c 0,-0.062 -0.057,-0.119 -0.12,-0.119 l -0.579,0 c -0.069,0 -0.119,0.057 -0.119,0.119 l 0,1.738 -2.053,0 0,-1.738 c 0,-0.062 -0.05,-0.119 -0.12,-0.119 l -0.585,0 C 0.057,-4.288 0,-4.231 0,-4.169 L 0,0 z"
             style="fill:#1c3a62;fill-opacity:1;fill-rule:nonzero;stroke:none"
             id="path396" />
        </g>
        <g
           id="g398"
           transform="translate(146.2125,756.4292)">
          <path
             inkscape:connector-curvature="0"
             d="m 0,0 c 0,0.063 0.051,0.119 0.12,0.119 l 2.562,0 c 0.069,0 0.12,-0.056 0.12,-0.119 l 0,-0.516 c 0,-0.063 -0.051,-0.12 -0.12,-0.12 l -1.863,0 0,-1.033 1.555,0 c 0.063,0 0.119,-0.056 0.119,-0.119 l 0,-0.523 c 0,-0.069 -0.056,-0.12 -0.119,-0.12 l -1.555,0 0,-1.101 1.863,0 c 0.069,0 0.12,-0.057 0.12,-0.12 l 0,-0.517 c 0,-0.062 -0.051,-0.119 -0.12,-0.119 l -2.562,0 C 0.051,-4.288 0,-4.231 0,-4.169 L 0,0 z"
             style="fill:#1c3a62;fill-opacity:1;fill-rule:nonzero;stroke:none"
             id="path400" />
        </g>
        <g
           id="g402"
           transform="translate(150.6598,756.4292)">
          <path
             inkscape:connector-curvature="0"
             d="m 0,0 c 0,0.063 0.051,0.119 0.12,0.119 l 1.801,0 c 0.755,0 1.372,-0.604 1.372,-1.353 0,-0.58 -0.384,-1.052 -0.932,-1.272 l 0.863,-1.599 c 0.044,-0.082 0,-0.183 -0.107,-0.183 l -0.661,0 c -0.057,0 -0.089,0.032 -0.101,0.057 l -0.837,1.668 -0.699,0 0,-1.606 c 0,-0.062 -0.057,-0.119 -0.12,-0.119 l -0.579,0 C 0.051,-4.288 0,-4.231 0,-4.169 L 0,0 z m 1.851,-1.889 c 0.334,0 0.624,0.289 0.624,0.642 0,0.334 -0.29,0.611 -0.624,0.611 l -1.026,0 0,-1.253 1.026,0 z"
             style="fill:#1c3a62;fill-opacity:1;fill-rule:nonzero;stroke:none"
             id="path404" />
        </g>
        <g
           id="g406"
           transform="translate(155.3946,756.4292)">
          <path
             inkscape:connector-curvature="0"
             d="m 0,0 c 0,0.063 0.05,0.119 0.119,0.119 l 2.563,0 C 2.751,0.119 2.801,0.063 2.801,0 l 0,-0.516 c 0,-0.063 -0.05,-0.12 -0.119,-0.12 l -1.864,0 0,-1.033 1.556,0 c 0.062,0 0.119,-0.056 0.119,-0.119 l 0,-0.523 c 0,-0.069 -0.057,-0.12 -0.119,-0.12 l -1.556,0 0,-1.101 1.864,0 c 0.069,0 0.119,-0.057 0.119,-0.12 l 0,-0.517 c 0,-0.062 -0.05,-0.119 -0.119,-0.119 l -2.563,0 C 0.05,-4.288 0,-4.231 0,-4.169 L 0,0 z"
             style="fill:#1c3a62;fill-opacity:1;fill-rule:nonzero;stroke:none"
             id="path408" />
        </g>
        <g
           id="g410"
           transform="translate(159.3947,756.3264)">
          <path
             inkscape:connector-curvature="0"
             d="m 0,0 -0.341,0 c -0.023,0 -0.04,0.019 -0.04,0.04 l 0,0.117 c 0,0.021 0.017,0.04 0.04,0.04 l 0.9,0 c 0.023,0 0.04,-0.019 0.04,-0.04 l 0,-0.117 C 0.599,0.019 0.582,0 0.559,0 l -0.341,0 0,-1.229 c 0,-0.021 -0.019,-0.039 -0.04,-0.039 l -0.138,0 C 0.019,-1.268 0,-1.25 0,-1.229 L 0,0 z"
             style="fill:#1c3a62;fill-opacity:1;fill-rule:nonzero;stroke:none"
             id="path412" />
        </g>
        <g
           id="g414"
           transform="translate(160.5013,756.5128)">
          <path
             inkscape:connector-curvature="0"
             d="m 0,0 c 0.004,0.017 0.02,0.031 0.037,0.031 l 0.034,0 c 0.013,0 0.031,-0.01 0.035,-0.023 l 0.438,-1.069 0.009,0 0.435,1.069 c 0.004,0.013 0.021,0.023 0.035,0.023 l 0.034,0 C 1.074,0.031 1.09,0.017 1.095,0 L 1.352,-1.407 C 1.358,-1.436 1.344,-1.455 1.315,-1.455 l -0.137,0 c -0.018,0 -0.035,0.015 -0.04,0.029 l -0.154,0.936 -0.007,0 -0.376,-0.963 C 0.596,-1.465 0.584,-1.476 0.565,-1.476 l -0.038,0 c -0.016,0 -0.031,0.011 -0.035,0.023 l -0.379,0.963 -0.009,0 -0.15,-0.936 C -0.048,-1.44 -0.067,-1.455 -0.084,-1.455 l -0.136,0 c -0.03,0 -0.044,0.019 -0.04,0.048 L 0,0 z"
             style="fill:#1c3a62;fill-opacity:1;fill-rule:nonzero;stroke:none"
             id="path416" />
        </g>
      </g>
    </g>
  </g>
</svg>
